<svg xmlns="http://www.w3.org/2000/svg" width="20" height="21" fill="none" class="t-icon t-icon-svg t-icon-clock-simple" style="width:20px;height:20px;flex:20px 0 0;fill:transparent;stroke:transparent;"><path fill="#fff" d="M10 2.167c4.6 0 8.333 3.733 8.333 8.333S14.6 18.833 10 18.833A8.336 8.336 0 0 1 1.667 10.5C1.667 5.9 5.4 2.167 10 2.167m0 15a6.665 6.665 0 0 0 6.667-6.667A6.665 6.665 0 0 0 10 3.833 6.665 6.665 0 0 0 3.333 10.5 6.665 6.665 0 0 0 10 17.166m2.946-10.792 1.179 1.179L10 11.678 8.822 10.5z" opacity=".8"></path></svg>
